<svg xmlns:dc="http://purl.org/dc/elements/1.1/" xmlns:cc="http://creativecommons.org/ns#" xmlns:rdf="http://www.w3.org/1999/02/22-rdf-syntax-ns#" xmlns:svg="http://www.w3.org/2000/svg" xmlns="http://www.w3.org/2000/svg" style="enable-background:new" id="svg8" version="1.1" viewBox="0 0 210.50902 28.25152" height="28.25152mm" width="210.50902mm">
  <defs id="defs2"/>
  <metadata id="metadata5">
    <rdf:RDF>
      <cc:Work rdf:about="">
        <dc:format>image/svg+xml</dc:format>
        <dc:type rdf:resource="http://purl.org/dc/dcmitype/StillImage"/>
        <dc:title/>
      </cc:Work>
    </rdf:RDF>
  </metadata>
  <g transform="translate(-481.47255,-240.41644)" id="layer1">
    <g id="g1142" style="enable-background:new" transform="translate(967.61391,544.21372)">
      <path style="opacity:1;fill:#ececec;fill-opacity:1;stroke:#000000;stroke-width:0.38648954;stroke-miterlimit:4;stroke-dasharray:none;stroke-opacity:1;enable-background:new" d="m -485.94812,-303.60404 h 210.12253 v 27.86503 h -210.12253 z" id="rect896-0-3-3-3"/>
      <g aria-label="&#61805;" transform="matrix(0.39686423,0,0,0.39686423,-622.02665,-321.90684)" style="font-style:normal;font-variant:normal;font-weight:normal;font-stretch:normal;font-size:40px;line-height:1.25;font-family:FontAwesome;-inkscape-font-specification:FontAwesome;letter-spacing:0px;word-spacing:0px;fill:#000000;fill-opacity:1;stroke:none;enable-background:new" id="flowRoot1379-5">
        <path d="m 442.85714,83.248047 c 0,3.147321 -2.56696,5.714286 -5.71428,5.714286 -3.14732,0 -5.71429,-2.566965 -5.71429,-5.714286 0,-3.147322 2.56697,-5.714286 5.71429,-5.714286 3.14732,0 5.71428,2.566964 5.71428,5.714286 z m 3.08036,0 c 0,-4.866072 -3.92857,-8.794643 -8.79464,-8.794643 -4.86607,0 -8.79465,3.928571 -8.79465,8.794643 0,4.866071 3.92858,8.794643 8.79465,8.794643 4.86607,0 8.79464,-3.928572 8.79464,-8.794643 z m 2.41071,-9.151786 c 0,-1.138393 -0.91517,-2.053571 -2.05357,-2.053571 -1.13839,0 -2.05357,0.915178 -2.05357,2.053571 0,1.138393 0.91518,2.053572 2.05357,2.053572 1.1384,0 2.05357,-0.915179 2.05357,-2.053572 z m -11.20535,-4.910714 c 2.5,0 7.85714,-0.200893 10.1116,0.691964 0.78125,0.3125 1.36161,0.691964 1.96429,1.294643 0.60268,0.602679 0.98214,1.183036 1.29464,1.964286 0.89286,2.254464 0.69197,7.611607 0.69197,10.111607 0,2.5 0.20089,7.857143 -0.69197,10.111607 -0.3125,0.78125 -0.69196,1.361607 -1.29464,1.964286 -0.60268,0.602678 -1.18304,0.982143 -1.96429,1.294643 -2.25446,0.892857 -7.6116,0.691964 -10.1116,0.691964 -2.5,0 -7.85715,0.200893 -10.11161,-0.691964 -0.78125,-0.3125 -1.36161,-0.691965 -1.96429,-1.294643 -0.60267,-0.602679 -0.98214,-1.183036 -1.29464,-1.964286 -0.89286,-2.254464 -0.69196,-7.611607 -0.69196,-10.111607 0,-2.5 -0.2009,-7.857143 0.69196,-10.111607 0.3125,-0.78125 0.69197,-1.361607 1.29464,-1.964286 0.60268,-0.602679 1.18304,-0.982143 1.96429,-1.294643 2.25446,-0.892857 7.61161,-0.691964 10.11161,-0.691964 z m 17.14285,14.0625 c 0,-2.366072 0.0223,-4.709822 -0.1116,-7.075893 -0.13393,-2.745536 -0.75893,-5.178571 -2.76786,-7.1875 -2.00893,-2.008929 -4.44196,-2.633929 -7.1875,-2.767857 -2.36607,-0.133929 -4.70982,-0.111607 -7.07589,-0.111607 -2.36607,0 -4.70982,-0.02232 -7.0759,0.111607 -2.74553,0.133928 -5.17857,0.758928 -7.1875,2.767857 -2.00892,2.008929 -2.63392,4.441964 -2.76785,7.1875 C 419.97768,78.538225 420,80.881975 420,83.248047 c 0,2.366071 -0.0223,4.709821 0.11161,7.075893 0.13393,2.745535 0.75893,5.178571 2.76785,7.1875 2.00893,2.008928 4.44197,2.63393 7.1875,2.76786 2.36608,0.13393 4.70983,0.1116 7.0759,0.1116 2.36607,0 4.70982,0.0223 7.07589,-0.1116 2.74554,-0.13393 5.17857,-0.758932 7.1875,-2.76786 2.00893,-2.008929 2.63393,-4.441965 2.76786,-7.1875 0.13393,-2.366072 0.1116,-4.709822 0.1116,-7.075893 z" id="path1134"/>
      </g>
      <g aria-label="&#61570;" style="font-style:normal;font-weight:normal;font-size:16.04008675px;line-height:1.25;font-family:sans-serif;letter-spacing:0px;word-spacing:0px;fill:#000000;fill-opacity:1;stroke:none;stroke-width:0.40100214;enable-background:new" id="text1409-2">
        <path d="m -464.59278,-295.78991 h -8.5929 c -1.4232,0 -2.57787,1.15467 -2.57787,2.57787 v 8.59291 c 0,1.4232 1.15467,2.57787 2.57787,2.57787 h 4.7619 v -5.32581 h -1.79019 v -2.07662 h 1.79019 v -1.53061 c 0,-1.77229 1.09202,-2.73899 2.67633,-2.73899 0.75188,0 1.4053,0.0537 1.59327,0.0806 v 1.85285 l -1.09201,0.009 c -0.86825,0 -1.02936,0.40279 -1.02936,1.0025 v 1.32474 h 2.04976 l -0.26852,2.07662 h -1.78124 v 5.32581 h 1.68277 c 1.4232,0 2.57788,-1.15467 2.57788,-2.57787 v -8.59291 c 0,-1.4232 -1.15468,-2.57787 -2.57788,-2.57787 z" style="font-style:normal;font-variant:normal;font-weight:normal;font-stretch:normal;font-family:FontAwesome;-inkscape-font-specification:FontAwesome;stroke-width:0.40100214" id="path1131"/>
      </g>
    </g>
  </g>
</svg>