<svg xmlns:dc="http://purl.org/dc/elements/1.1/" xmlns:cc="http://creativecommons.org/ns#" xmlns:rdf="http://www.w3.org/1999/02/22-rdf-syntax-ns#" xmlns:svg="http://www.w3.org/2000/svg" xmlns="http://www.w3.org/2000/svg" style="enable-background:new" id="svg8" version="1.1" viewBox="0 0 210.50903 28.25152" height="28.25152mm" width="210.50903mm">
  <defs id="defs2"/>
  <metadata id="metadata5">
    <rdf:RDF>
      <cc:Work rdf:about="">
        <dc:format>image/svg+xml</dc:format>
        <dc:type rdf:resource="http://purl.org/dc/dcmitype/StillImage"/>
        <dc:title/>
      </cc:Work>
    </rdf:RDF>
  </metadata>
  <g transform="translate(-481.47256,-240.41644)" id="layer1">
    <g id="g1162" style="enable-background:new" transform="translate(1235.2584,458.59082)">
      <path style="opacity:1;fill:#ececec;fill-opacity:1;stroke:#000000;stroke-width:0.38648954;stroke-miterlimit:4;stroke-dasharray:none;stroke-opacity:1;enable-background:new" d="m -753.5926,-217.98114 h 210.12255 v 27.86503 H -753.5926 Z" id="rect896-0-3-3-3-2-3"/>
      <g aria-label="&#61805;" transform="matrix(0.39686423,0,0,0.39686423,-735.18932,-236.28392)" style="font-style:normal;font-variant:normal;font-weight:normal;font-stretch:normal;font-size:40px;line-height:1.25;font-family:FontAwesome;-inkscape-font-specification:FontAwesome;letter-spacing:0px;word-spacing:0px;fill:#000000;fill-opacity:1;stroke:none;enable-background:new" id="flowRoot1379-5-6-7">
        <path d="m 442.85714,83.248047 c 0,3.147321 -2.56696,5.714286 -5.71428,5.714286 -3.14732,0 -5.71429,-2.566965 -5.71429,-5.714286 0,-3.147322 2.56697,-5.714286 5.71429,-5.714286 3.14732,0 5.71428,2.566964 5.71428,5.714286 z m 3.08036,0 c 0,-4.866072 -3.92857,-8.794643 -8.79464,-8.794643 -4.86607,0 -8.79465,3.928571 -8.79465,8.794643 0,4.866071 3.92858,8.794643 8.79465,8.794643 4.86607,0 8.79464,-3.928572 8.79464,-8.794643 z m 2.41071,-9.151786 c 0,-1.138393 -0.91517,-2.053571 -2.05357,-2.053571 -1.13839,0 -2.05357,0.915178 -2.05357,2.053571 0,1.138393 0.91518,2.053572 2.05357,2.053572 1.1384,0 2.05357,-0.915179 2.05357,-2.053572 z m -11.20535,-4.910714 c 2.5,0 7.85714,-0.200893 10.1116,0.691964 0.78125,0.3125 1.36161,0.691964 1.96429,1.294643 0.60268,0.602679 0.98214,1.183036 1.29464,1.964286 0.89286,2.254464 0.69197,7.611607 0.69197,10.111607 0,2.5 0.20089,7.857143 -0.69197,10.111607 -0.3125,0.78125 -0.69196,1.361607 -1.29464,1.964286 -0.60268,0.602678 -1.18304,0.982143 -1.96429,1.294643 -2.25446,0.892857 -7.6116,0.691964 -10.1116,0.691964 -2.5,0 -7.85715,0.200893 -10.11161,-0.691964 -0.78125,-0.3125 -1.36161,-0.691965 -1.96429,-1.294643 -0.60267,-0.602679 -0.98214,-1.183036 -1.29464,-1.964286 -0.89286,-2.254464 -0.69196,-7.611607 -0.69196,-10.111607 0,-2.5 -0.2009,-7.857143 0.69196,-10.111607 0.3125,-0.78125 0.69197,-1.361607 1.29464,-1.964286 0.60268,-0.602679 1.18304,-0.982143 1.96429,-1.294643 2.25446,-0.892857 7.61161,-0.691964 10.11161,-0.691964 z m 17.14285,14.0625 c 0,-2.366072 0.0223,-4.709822 -0.1116,-7.075893 -0.13393,-2.745536 -0.75893,-5.178571 -2.76786,-7.1875 -2.00893,-2.008929 -4.44196,-2.633929 -7.1875,-2.767857 -2.36607,-0.133929 -4.70982,-0.111607 -7.07589,-0.111607 -2.36607,0 -4.70982,-0.02232 -7.0759,0.111607 -2.74553,0.133928 -5.17857,0.758928 -7.1875,2.767857 -2.00892,2.008929 -2.63392,4.441964 -2.76785,7.1875 C 419.97768,78.538225 420,80.881975 420,83.248047 c 0,2.366071 -0.0223,4.709821 0.11161,7.075893 0.13393,2.745535 0.75893,5.178571 2.76785,7.1875 2.00893,2.008928 4.44197,2.63393 7.1875,2.76786 2.36608,0.13393 4.70983,0.1116 7.0759,0.1116 2.36607,0 4.70982,0.0223 7.07589,-0.1116 2.74554,-0.13393 5.17857,-0.758932 7.1875,-2.76786 2.00893,-2.008929 2.63393,-4.441965 2.76786,-7.1875 0.13393,-2.366072 0.1116,-4.709822 0.1116,-7.075893 z" id="path1152"/>
      </g>
      <g aria-label="&#61570;" style="font-style:normal;font-weight:normal;font-size:16.04008675px;line-height:1.25;font-family:sans-serif;letter-spacing:0px;word-spacing:0px;fill:#000000;fill-opacity:1;stroke:none;stroke-width:0.40100214;enable-background:new" id="text1409-2-9-2">
        <path d="m -577.75543,-210.16701 h -8.59291 c -1.4232,0 -2.57787,1.15467 -2.57787,2.57787 v 8.5929 c 0,1.4232 1.15467,2.57787 2.57787,2.57787 h 4.7619 v -5.32581 h -1.79018 v -2.07661 h 1.79018 v -1.53062 c 0,-1.77228 1.09202,-2.73898 2.67633,-2.73898 0.75188,0 1.4053,0.0537 1.59327,0.0806 v 1.85285 l -1.09201,0.009 c -0.86824,0 -1.02936,0.40279 -1.02936,1.00251 v 1.32474 h 2.04976 l -0.26852,2.07661 h -1.78124 v 5.32581 h 1.68278 c 1.4232,0 2.57787,-1.15467 2.57787,-2.57787 v -8.5929 c 0,-1.4232 -1.15467,-2.57787 -2.57787,-2.57787 z" style="font-style:normal;font-variant:normal;font-weight:normal;font-stretch:normal;font-family:FontAwesome;-inkscape-font-specification:FontAwesome;stroke-width:0.40100214" id="path1149"/>
      </g>
      <path id="path930-0-9" d="m -726.41197,-205.55847 c 0.11705,-0.093 0.29113,-0.006 0.29113,0.14107 v 6.13771 c 0,0.79536 -0.64529,1.44063 -1.44064,1.44063 h -12.48551 c -0.79535,0 -1.44065,-0.64527 -1.44065,-1.44063 v -6.1347 c 0,-0.15008 0.17109,-0.23411 0.29114,-0.14108 0.67229,0.52223 1.56369,1.18552 4.62505,3.40951 0.63327,0.46221 1.70175,1.43463 2.76721,1.42863 1.07147,0.009 2.16096,-0.98444 2.77023,-1.42863 3.06135,-2.22399 3.94974,-2.89028 4.62204,-3.41251 z m -7.39227,3.87772 c 0.69631,0.012 1.69876,-0.87638 2.20296,-1.24256 3.98277,-2.89027 4.28591,-3.14238 5.20431,-3.8627 0.17408,-0.13506 0.27613,-0.34515 0.27613,-0.56725 v -0.57025 c 0,-0.79535 -0.64529,-1.44064 -1.44064,-1.44064 h -12.48551 c -0.79535,0 -1.44065,0.64529 -1.44065,1.44064 v 0.57025 c 0,0.2221 0.10205,0.42919 0.27613,0.56725 0.91841,0.71731 1.22155,0.97243 5.2043,3.8627 0.50423,0.36618 1.50667,1.25456 2.20297,1.24256 z" style="stroke-width:0.03001325;enable-background:new"/>
      <path id="path941-2-7" d="m -708.92656,-210.33606 -2.58606,-0.59678 c -0.28098,-0.0647 -0.56943,0.0821 -0.68381,0.34564 l -1.19356,2.78497 c -0.10444,0.24369 -0.0348,0.52965 0.17157,0.69625 l 1.50687,1.23335 c -0.89517,1.90722 -2.45923,3.49366 -4.40623,4.40624 l -1.23335,-1.50688 c -0.16909,-0.20639 -0.45256,-0.27601 -0.69625,-0.17157 l -2.78498,1.19356 c -0.26606,0.11688 -0.41277,0.40532 -0.34812,0.6863 l 0.59678,2.58606 c 0.0622,0.26855 0.30088,0.46251 0.58186,0.46251 6.36816,0 11.53778,-5.15968 11.53778,-11.53779 0,-0.2785 -0.19147,-0.51969 -0.4625,-0.58186 z" style="stroke-width:0.02486589;enable-background:new"/>
    </g>
  </g>
</svg>