<svg xmlns:dc="http://purl.org/dc/elements/1.1/" xmlns:cc="http://creativecommons.org/ns#" xmlns:rdf="http://www.w3.org/1999/02/22-rdf-syntax-ns#" xmlns:svg="http://www.w3.org/2000/svg" xmlns="http://www.w3.org/2000/svg" width="210.50908mm" height="28.25152mm" viewBox="0 0 210.50908 28.25152" version="1.1" id="svg8" style="enable-background:new">
  <defs id="defs2"/>
  <metadata id="metadata5">
    <rdf:RDF>
      <cc:Work rdf:about="">
        <dc:format>image/svg+xml</dc:format>
        <dc:type rdf:resource="http://purl.org/dc/dcmitype/StillImage"/>
        <dc:title/>
      </cc:Work>
    </rdf:RDF>
  </metadata>
  <g id="layer1" transform="translate(-527.55125,-134.96412)">
    <g transform="translate(-206.70654,679.17203)" style="enable-background:new" id="g1231">
      <g id="g988" style="enable-background:new" transform="translate(38.701617,153.81413)">
        <path style="opacity:1;fill:#ececec;fill-opacity:1;stroke:#000000;stroke-width:0.38648954;stroke-miterlimit:4;stroke-dasharray:none;stroke-opacity:1;enable-background:new" d="M 695.74942,-697.8288 H 905.872 v 27.86503 H 695.74942 Z" id="rect896-0-3-3-36-4-8-4-0-7-1"/>
        <path style="opacity:1;fill:#ececec;fill-opacity:1;stroke:#b70000;stroke-width:1;stroke-miterlimit:4;stroke-dasharray:2.00000004, 2.00000004;stroke-dashoffset:0;stroke-opacity:1;enable-background:new" d="M 705.63016,-693.37546 H 894.0551 v 17.10526 H 705.63016 Z" id="rect1459-2-1"/>
        <g id="flowRoot821" style="font-style:normal;font-weight:normal;font-size:40px;line-height:1.25;font-family:sans-serif;letter-spacing:0px;word-spacing:0px;fill:#000000;fill-opacity:1;stroke:none;enable-background:new" transform="matrix(0.26458333,0,0,0.26458333,703.27486,-698.02205)" aria-label="MENU ITEMS">
          <path id="path1025" d="m 242.61328,33.445312 h 5.87891 l 7.4414,19.84375 7.48047,-19.84375 h 5.87891 v 29.160157 h -3.84766 V 37 l -7.51953,20 h -3.96484 l -7.51953,-20 v 25.605469 h -3.82813 z"/>
          <path id="path1027" d="m 277.14453,33.445312 h 18.4375 v 3.320313 h -14.49219 v 8.632812 h 13.88672 v 3.320313 h -13.88672 v 10.566406 h 14.84375 v 3.320313 h -18.78906 z"/>
          <path id="path1029" d="m 302.45703,33.445312 h 5.3125 l 12.92969,24.394532 V 33.445312 h 3.82812 v 29.160157 h -5.3125 L 306.28516,38.210937 v 24.394532 h -3.82813 z"/>
          <path id="path1031" d="m 331.92969,33.445312 h 3.96484 v 17.714844 q 0,4.6875 1.69922,6.757813 1.69922,2.050781 5.50781,2.050781 3.78906,0 5.48828,-2.050781 1.69922,-2.070313 1.69922,-6.757813 V 33.445312 h 3.96485 v 18.203125 q 0,5.703125 -2.83204,8.613282 -2.8125,2.910156 -8.32031,2.910156 -5.52734,0 -8.35937,-2.910156 -2.8125,-2.910157 -2.8125,-8.613282 z"/>
          <path id="path1033" d="m 374.41016,33.445312 h 3.94531 v 29.160157 h -3.94531 z"/>
          <path id="path1035" d="m 382.16406,33.445312 h 24.66797 v 3.320313 h -10.35156 v 25.839844 h -3.96485 V 36.765625 h -10.35156 z"/>
          <path id="path1037" d="m 410.66016,33.445312 h 18.4375 v 3.320313 h -14.49219 v 8.632812 h 13.88672 v 3.320313 h -13.88672 v 10.566406 h 14.84375 v 3.320313 h -18.78906 z"/>
          <path id="path1039" d="m 435.97266,33.445312 h 5.8789 l 7.44141,19.84375 7.48047,-19.84375 h 5.8789 v 29.160157 h -3.84765 V 37 l -7.51953,20 h -3.96485 l -7.51953,-20 v 25.605469 h -3.82812 z"/>
          <path id="path1041" d="M 487.98437,34.402344 V 38.25 q -2.24609,-1.074219 -4.23828,-1.601563 -1.99218,-0.527343 -3.84765,-0.527343 -3.22266,0 -4.98047,1.25 -1.73828,1.25 -1.73828,3.554687 0,1.933594 1.15234,2.929688 1.17188,0.976562 4.41406,1.582031 l 2.38282,0.488281 q 4.41406,0.839844 6.5039,2.96875 2.10938,2.109375 2.10938,5.664063 0,4.238281 -2.85157,6.425781 -2.83203,2.1875 -8.32031,2.1875 -2.07031,0 -4.41406,-0.46875 -2.32422,-0.46875 -4.82422,-1.386719 v -4.0625 q 2.40234,1.347656 4.70703,2.03125 2.30469,0.683594 4.53125,0.683594 3.37891,0 5.21485,-1.328125 1.83593,-1.328125 1.83593,-3.789063 0,-2.148437 -1.32812,-3.359375 -1.3086,-1.210937 -4.31641,-1.816406 l -2.40234,-0.46875 q -4.41406,-0.878906 -6.38672,-2.753906 -1.97266,-1.875 -1.97266,-5.214844 0,-3.867187 2.71485,-6.09375 2.73437,-2.226562 7.51953,-2.226562 2.05078,0 4.17969,0.371093 2.1289,0.371094 4.35546,1.113282 z"/>
        </g>
      </g>
    </g>
  </g>
</svg>