<svg xmlns:dc="http://purl.org/dc/elements/1.1/" xmlns:cc="http://creativecommons.org/ns#" xmlns:rdf="http://www.w3.org/1999/02/22-rdf-syntax-ns#" xmlns:svg="http://www.w3.org/2000/svg" xmlns="http://www.w3.org/2000/svg" width="210.50908mm" height="28.25152mm" viewBox="0 0 210.50908 28.25152" version="1.1" id="svg8" style="enable-background:new">
  <defs id="defs2"/>
  <metadata id="metadata5">
    <rdf:RDF>
      <cc:Work rdf:about="">
        <dc:format>image/svg+xml</dc:format>
        <dc:type rdf:resource="http://purl.org/dc/dcmitype/StillImage"/>
        <dc:title/>
      </cc:Work>
    </rdf:RDF>
  </metadata>
  <g id="layer1" transform="translate(87.603635,-121.21979)">
    <g transform="translate(-206.70654,679.17203)" style="enable-background:new" id="g1231">
      <g id="g1158" style="enable-background:new" transform="translate(-278.7485,56.216299)">
        <path style="opacity:1;fill:#ececec;fill-opacity:1;stroke:#000000;stroke-width:0.38648954;stroke-miterlimit:4;stroke-dasharray:none;stroke-opacity:1;enable-background:new" d="m 398.04465,-613.97529 h 210.12258 v 27.86503 H 398.04465 Z" id="rect896-0-3-3-36-4-8-4-0-7-1-3-8"/>
        <path style="opacity:1;fill:#ececec;fill-opacity:1;stroke:#b70000;stroke-width:0.86474514;stroke-miterlimit:4;stroke-dasharray:1.72949038, 1.72949038;stroke-dashoffset:0;stroke-opacity:1;enable-background:new" d="m 407.85828,-609.58023 h 139.94754 v 17.22182 H 407.85828 Z" id="rect1459-2-1-6-7"/>
        <g aria-label="MENU ITEMS" transform="matrix(0.26458333,0,0,0.26458333,376.09882,-614.16854)" style="font-style:normal;font-weight:normal;font-size:40px;line-height:1.25;font-family:sans-serif;letter-spacing:0px;word-spacing:0px;fill:#000000;fill-opacity:1;stroke:none;enable-background:new" id="flowRoot821-7-9">
          <path d="m 242.61328,33.445312 h 5.87891 l 7.4414,19.84375 7.48047,-19.84375 h 5.87891 v 29.160157 h -3.84766 V 37 l -7.51953,20 h -3.96484 l -7.51953,-20 v 25.605469 h -3.82813 z" id="path990-2"/>
          <path d="m 277.14453,33.445312 h 18.4375 v 3.320313 h -14.49219 v 8.632812 h 13.88672 v 3.320313 h -13.88672 v 10.566406 h 14.84375 v 3.320313 h -18.78906 z" id="path992-0"/>
          <path d="m 302.45703,33.445312 h 5.3125 l 12.92969,24.394532 V 33.445312 h 3.82812 v 29.160157 h -5.3125 L 306.28516,38.210937 v 24.394532 h -3.82813 z" id="path994-2"/>
          <path d="m 331.92969,33.445312 h 3.96484 v 17.714844 q 0,4.6875 1.69922,6.757813 1.69922,2.050781 5.50781,2.050781 3.78906,0 5.48828,-2.050781 1.69922,-2.070313 1.69922,-6.757813 V 33.445312 h 3.96485 v 18.203125 q 0,5.703125 -2.83204,8.613282 -2.8125,2.910156 -8.32031,2.910156 -5.52734,0 -8.35937,-2.910156 -2.8125,-2.910157 -2.8125,-8.613282 z" id="path996-3"/>
          <path d="m 374.41016,33.445312 h 3.94531 v 29.160157 h -3.94531 z" id="path998-7"/>
          <path d="m 382.16406,33.445312 h 24.66797 v 3.320313 h -10.35156 v 25.839844 h -3.96485 V 36.765625 h -10.35156 z" id="path1000-5"/>
          <path d="m 410.66016,33.445312 h 18.4375 v 3.320313 h -14.49219 v 8.632812 h 13.88672 v 3.320313 h -13.88672 v 10.566406 h 14.84375 v 3.320313 h -18.78906 z" id="path1002-9"/>
          <path d="m 435.97266,33.445312 h 5.8789 l 7.44141,19.84375 7.48047,-19.84375 h 5.8789 v 29.160157 h -3.84765 V 37 l -7.51953,20 h -3.96485 l -7.51953,-20 v 25.605469 h -3.82812 z" id="path1004-2"/>
          <path d="M 487.98437,34.402344 V 38.25 q -2.24609,-1.074219 -4.23828,-1.601563 -1.99218,-0.527343 -3.84765,-0.527343 -3.22266,0 -4.98047,1.25 -1.73828,1.25 -1.73828,3.554687 0,1.933594 1.15234,2.929688 1.17188,0.976562 4.41406,1.582031 l 2.38282,0.488281 q 4.41406,0.839844 6.5039,2.96875 2.10938,2.109375 2.10938,5.664063 0,4.238281 -2.85157,6.425781 -2.83203,2.1875 -8.32031,2.1875 -2.07031,0 -4.41406,-0.46875 -2.32422,-0.46875 -4.82422,-1.386719 v -4.0625 q 2.40234,1.347656 4.70703,2.03125 2.30469,0.683594 4.53125,0.683594 3.37891,0 5.21485,-1.328125 1.83593,-1.328125 1.83593,-3.789063 0,-2.148437 -1.32812,-3.359375 -1.3086,-1.210937 -4.31641,-1.816406 l -2.40234,-0.46875 q -4.41406,-0.878906 -6.38672,-2.753906 -1.97266,-1.875 -1.97266,-5.214844 0,-3.867187 2.71485,-6.09375 2.73437,-2.226562 7.51953,-2.226562 2.05078,0 4.17969,0.371093 2.1289,0.371094 4.35546,1.113282 z" id="path1006-2"/>
        </g>
        <path id="path1134" d="m 597.0209,-594.4085 -3.0962,-3.0962 c -0.13975,-0.13975 -0.32918,-0.21739 -0.52794,-0.21739 h -0.5062 c 0.85713,-1.09625 1.36643,-2.4751 1.36643,-3.97507 0,-3.56824 -2.89124,-6.45948 -6.45948,-6.45948 -3.56824,0 -6.45948,2.89124 -6.45948,6.45948 0,3.56825 2.89124,6.45949 6.45948,6.45949 1.49997,0 2.87882,-0.50931 3.97507,-1.36643 v 0.5062 c 0,0.19875 0.0776,0.38819 0.21738,0.52793 l 3.09621,3.09621 c 0.29191,0.29192 0.76395,0.29192 1.05277,0 l 0.87886,-0.87886 c 0.29192,-0.29192 0.29192,-0.76396 0.003,-1.05588 z m -9.22339,-3.31359 c -2.1956,0 -3.97506,-1.77636 -3.97506,-3.97507 0,-2.1956 1.77635,-3.97506 3.97506,-3.97506 2.1956,0 3.97507,1.77636 3.97507,3.97506 0,2.19561 -1.77636,3.97507 -3.97507,3.97507 z" style="stroke-width:0.0310552"/>
      </g>
    </g>
  </g>
</svg>