<svg xmlns:dc="http://purl.org/dc/elements/1.1/" xmlns:cc="http://creativecommons.org/ns#" xmlns:rdf="http://www.w3.org/1999/02/22-rdf-syntax-ns#" xmlns:svg="http://www.w3.org/2000/svg" xmlns="http://www.w3.org/2000/svg" width="210.50908mm" height="28.25152mm" viewBox="0 0 210.50908 28.25152" version="1.1" id="svg8" style="enable-background:new">
  <defs id="defs2"/>
  <metadata id="metadata5">
    <rdf:RDF>
      <cc:Work rdf:about="">
        <dc:format>image/svg+xml</dc:format>
        <dc:type rdf:resource="http://purl.org/dc/dcmitype/StillImage"/>
        <dc:title/>
      </cc:Work>
    </rdf:RDF>
  </metadata>
  <g id="layer1" transform="translate(-685.66632,149.63519)">
    <g transform="translate(-206.70654,679.17203)" style="enable-background:new" id="g1231">
      <g id="g1196" style="enable-background:new" transform="translate(494.52145,-214.63869)">
        <path style="opacity:1;fill:#ececec;fill-opacity:1;stroke:#000000;stroke-width:0.38648954;stroke-miterlimit:4;stroke-dasharray:none;stroke-opacity:1;enable-background:new" d="m 398.04465,-613.97529 h 210.12258 v 27.86503 H 398.04465 Z" id="rect896-0-3-3-36-4-8-4-0-7-1-3-8"/>
        <path id="path1134" d="m 597.0209,-594.4085 -3.0962,-3.0962 c -0.13975,-0.13975 -0.32918,-0.21739 -0.52794,-0.21739 h -0.5062 c 0.85713,-1.09625 1.36643,-2.4751 1.36643,-3.97507 0,-3.56824 -2.89124,-6.45948 -6.45948,-6.45948 -3.56824,0 -6.45948,2.89124 -6.45948,6.45948 0,3.56825 2.89124,6.45949 6.45948,6.45949 1.49997,0 2.87882,-0.50931 3.97507,-1.36643 v 0.5062 c 0,0.19875 0.0776,0.38819 0.21738,0.52793 l 3.09621,3.09621 c 0.29191,0.29192 0.76395,0.29192 1.05277,0 l 0.87886,-0.87886 c 0.29192,-0.29192 0.29192,-0.76396 0.003,-1.05588 z m -9.22339,-3.31359 c -2.1956,0 -3.97506,-1.77636 -3.97506,-3.97507 0,-2.1956 1.77635,-3.97506 3.97506,-3.97506 2.1956,0 3.97507,1.77636 3.97507,3.97506 0,2.19561 -1.77636,3.97507 -3.97507,3.97507 z" style="stroke-width:0.0310552"/>
      </g>
    </g>
  </g>
</svg>