<svg xmlns:dc="http://purl.org/dc/elements/1.1/" xmlns:cc="http://creativecommons.org/ns#" xmlns:rdf="http://www.w3.org/1999/02/22-rdf-syntax-ns#" xmlns:svg="http://www.w3.org/2000/svg" xmlns="http://www.w3.org/2000/svg" style="enable-background:new" id="svg8" version="1.1" viewBox="0 0 210.50906 28.25152" height="28.25152mm" width="210.50906mm">
  <defs id="defs2"/>
  <metadata id="metadata5">
    <rdf:RDF>
      <cc:Work rdf:about="">
        <dc:format>image/svg+xml</dc:format>
        <dc:type rdf:resource="http://purl.org/dc/dcmitype/StillImage"/>
        <dc:title/>
      </cc:Work>
    </rdf:RDF>
  </metadata>
  <g transform="translate(-481.47253,-240.41644)" id="layer1">
    <g id="g1231" style="enable-background:new" transform="translate(-206.70654,679.17203)">
      <path style="opacity:1;fill:#ececec;fill-opacity:1;stroke:#000000;stroke-width:0.38648954;stroke-miterlimit:4;stroke-dasharray:none;stroke-opacity:1;enable-background:new" d="m 688.37231,-438.56235 h 210.12257 v 27.86503 H 688.37231 Z" id="rect896-0-3-3-36-4-8-4-0-7-1"/>
      <path style="opacity:1;fill:#ececec;fill-opacity:1;stroke:#b70000;stroke-width:1;stroke-miterlimit:4;stroke-dasharray:2.00000004, 2.00000004;stroke-dashoffset:0;stroke-opacity:1;enable-background:new" d="m 698.25305,-434.10901 h 188.42494 v 17.10526 H 698.25305 Z" id="rect1459-2-1"/>
      <g aria-label="text" transform="matrix(0.26458333,0,0,0.26458333,-129.48058,-269.86028)" style="font-style:normal;font-weight:normal;font-size:40px;line-height:1.25;font-family:sans-serif;letter-spacing:0px;word-spacing:0px;fill:#000000;fill-opacity:1;stroke:none;enable-background:new" id="flowRoot1461-7-5">
        <path d="m 3440.832,-607.41797 v 6.21094 h 7.4024 v 2.79297 h -7.4024 v 11.875 q 0,2.67578 0.7227,3.4375 0.7422,0.76172 2.9883,0.76172 h 3.6914 v 3.00781 h -3.6914 q -4.1602,0 -5.7422,-1.54297 -1.582,-1.5625 -1.582,-5.66406 v -11.875 h -2.6368 v -2.79297 h 2.6368 v -6.21094 z" id="path1214"/>
        <path d="m 3471.6914,-591.16797 v 1.75781 h -16.5234 q 0.2343,3.71094 2.2265,5.66407 2.0118,1.93359 5.586,1.93359 2.0703,0 4.0039,-0.50781 1.9531,-0.50781 3.8672,-1.52344 v 3.39844 q -1.9336,0.82031 -3.9649,1.25 -2.0312,0.42969 -4.1211,0.42969 -5.2343,0 -8.3008,-3.04688 -3.0468,-3.04687 -3.0468,-8.24219 0,-5.37109 2.8906,-8.51562 2.9102,-3.16406 7.832,-3.16406 4.4141,0 6.9727,2.85156 2.5781,2.83203 2.5781,7.71484 z m -3.5937,-1.05469 q -0.039,-2.94921 -1.6602,-4.70703 -1.6016,-1.75781 -4.2578,-1.75781 -3.0078,0 -4.8242,1.69922 -1.7969,1.69922 -2.0703,4.78516 z" id="path1216"/>
        <path d="m 3495.0703,-601.20703 -7.9101,10.64453 8.3203,11.23047 h -4.2383 l -6.3672,-8.59375 -6.3672,8.59375 h -4.2383 l 8.4961,-11.44531 -7.7734,-10.42969 h 4.2383 l 5.8008,7.79297 5.8007,-7.79297 z" id="path1218"/>
        <path d="m 3504.1133,-607.41797 v 6.21094 h 7.4023 v 2.79297 h -7.4023 v 11.875 q 0,2.67578 0.7226,3.4375 0.7422,0.76172 2.9883,0.76172 h 3.6914 v 3.00781 h -3.6914 q -4.1601,0 -5.7422,-1.54297 -1.582,-1.5625 -1.582,-5.66406 v -11.875 h -2.6367 v -2.79297 h 2.6367 v -6.21094 z" id="path1220"/>
      </g>
    </g>
  </g>
</svg>